<svg id="visual" viewBox="0 0 900 600" width="900" height="600" xmlns="http://www.w3.org/2000/svg" xmlns:xlink="http://www.w3.org/1999/xlink" version="1.1"><rect x="0" y="0" width="900" height="600" fill="#9d311d"></rect><path d="M0 427L16.7 424.3C33.3 421.7 66.7 416.3 100 407.2C133.3 398 166.7 385 200 383.2C233.3 381.3 266.7 390.7 300 390.8C333.3 391 366.7 382 400 379C433.3 376 466.7 379 500 386.8C533.3 394.7 566.7 407.3 600 406.3C633.3 405.3 666.7 390.7 700 386.5C733.3 382.3 766.7 388.7 800 392.5C833.3 396.3 866.7 397.7 883.3 398.3L900 399L900 601L883.3 601C866.7 601 833.3 601 800 601C766.7 601 733.3 601 700 601C666.7 601 633.3 601 600 601C566.7 601 533.3 601 500 601C466.7 601 433.3 601 400 601C366.7 601 333.3 601 300 601C266.7 601 233.3 601 200 601C166.7 601 133.3 601 100 601C66.7 601 33.3 601 16.7 601L0 601Z" fill="#bf6b12"></path><path d="M0 409L16.7 416.8C33.3 424.7 66.7 440.3 100 440.7C133.3 441 166.7 426 200 425.8C233.3 425.7 266.7 440.3 300 442.2C333.3 444 366.7 433 400 434.3C433.3 435.7 466.7 449.3 500 452.7C533.3 456 566.7 449 600 448.7C633.3 448.3 666.7 454.7 700 454.3C733.3 454 766.7 447 800 446.7C833.3 446.3 866.7 452.7 883.3 455.8L900 459L900 601L883.3 601C866.7 601 833.3 601 800 601C766.7 601 733.3 601 700 601C666.7 601 633.3 601 600 601C566.7 601 533.3 601 500 601C466.7 601 433.3 601 400 601C366.7 601 333.3 601 300 601C266.7 601 233.3 601 200 601C166.7 601 133.3 601 100 601C66.7 601 33.3 601 16.7 601L0 601Z" fill="#ae5615"></path><path d="M0 474L16.7 478.2C33.3 482.3 66.7 490.7 100 493.8C133.3 497 166.7 495 200 491.5C233.3 488 266.7 483 300 475.7C333.3 468.3 366.7 458.7 400 459.7C433.3 460.7 466.7 472.3 500 474.2C533.3 476 566.7 468 600 465.3C633.3 462.7 666.7 465.3 700 471.5C733.3 477.7 766.7 487.3 800 491C833.3 494.7 866.7 492.3 883.3 491.2L900 490L900 601L883.3 601C866.7 601 833.3 601 800 601C766.7 601 733.3 601 700 601C666.7 601 633.3 601 600 601C566.7 601 533.3 601 500 601C466.7 601 433.3 601 400 601C366.7 601 333.3 601 300 601C266.7 601 233.3 601 200 601C166.7 601 133.3 601 100 601C66.7 601 33.3 601 16.7 601L0 601Z" fill="#9b4217"></path><path d="M0 531L16.7 530.8C33.3 530.7 66.7 530.3 100 531.8C133.3 533.3 166.7 536.7 200 532.5C233.3 528.3 266.7 516.7 300 509C333.3 501.3 366.7 497.7 400 497C433.3 496.3 466.7 498.7 500 503.5C533.3 508.3 566.7 515.7 600 519C633.3 522.3 666.7 521.7 700 522.7C733.3 523.7 766.7 526.3 800 525.5C833.3 524.7 866.7 520.3 883.3 518.2L900 516L900 601L883.3 601C866.7 601 833.3 601 800 601C766.7 601 733.3 601 700 601C666.7 601 633.3 601 600 601C566.7 601 533.3 601 500 601C466.7 601 433.3 601 400 601C366.7 601 333.3 601 300 601C266.7 601 233.3 601 200 601C166.7 601 133.3 601 100 601C66.7 601 33.3 601 16.7 601L0 601Z" fill="#873017"></path><path d="M0 571L16.7 566.7C33.3 562.3 66.7 553.7 100 548C133.3 542.3 166.7 539.7 200 539.2C233.3 538.7 266.7 540.3 300 546.5C333.3 552.7 366.7 563.3 400 564.2C433.3 565 466.7 556 500 555C533.3 554 566.7 561 600 559.3C633.3 557.7 666.7 547.3 700 542.8C733.3 538.3 766.7 539.7 800 540.7C833.3 541.7 866.7 542.3 883.3 542.7L900 543L900 601L883.3 601C866.7 601 833.3 601 800 601C766.7 601 733.3 601 700 601C666.7 601 633.3 601 600 601C566.7 601 533.3 601 500 601C466.7 601 433.3 601 400 601C366.7 601 333.3 601 300 601C266.7 601 233.3 601 200 601C166.7 601 133.3 601 100 601C66.7 601 33.3 601 16.7 601L0 601Z" fill="#721e15"></path></svg>