<svg id="visual" viewBox="0 0 900 600" width="900" height="600" xmlns="http://www.w3.org/2000/svg" xmlns:xlink="http://www.w3.org/1999/xlink" version="1.1"><rect x="0" y="0" width="900" height="600" fill="#6096e6"></rect><path d="M0 464L16.7 463.7C33.3 463.3 66.7 462.7 100 459C133.3 455.3 166.7 448.7 200 444C233.3 439.3 266.7 436.7 300 435.8C333.3 435 366.7 436 400 440.5C433.3 445 466.7 453 500 454.8C533.3 456.7 566.7 452.3 600 451.2C633.3 450 666.7 452 700 452C733.3 452 766.7 450 800 446.7C833.3 443.3 866.7 438.7 883.3 436.3L900 434L900 601L883.3 601C866.7 601 833.3 601 800 601C766.7 601 733.3 601 700 601C666.7 601 633.3 601 600 601C566.7 601 533.3 601 500 601C466.7 601 433.3 601 400 601C366.7 601 333.3 601 300 601C266.7 601 233.3 601 200 601C166.7 601 133.3 601 100 601C66.7 601 33.3 601 16.7 601L0 601Z" fill="#00943a"></path><path d="M0 489L16.7 485.5C33.3 482 66.7 475 100 473.8C133.3 472.7 166.7 477.3 200 480.5C233.3 483.7 266.7 485.3 300 483.8C333.3 482.3 366.7 477.7 400 476C433.3 474.3 466.7 475.7 500 475C533.3 474.3 566.7 471.7 600 468.3C633.3 465 666.7 461 700 464.5C733.3 468 766.7 479 800 479.8C833.3 480.7 866.7 471.3 883.3 466.7L900 462L900 601L883.3 601C866.7 601 833.3 601 800 601C766.7 601 733.3 601 700 601C666.7 601 633.3 601 600 601C566.7 601 533.3 601 500 601C466.7 601 433.3 601 400 601C366.7 601 333.3 601 300 601C266.7 601 233.3 601 200 601C166.7 601 133.3 601 100 601C66.7 601 33.3 601 16.7 601L0 601Z" fill="#00ab6e"></path><path d="M0 510L16.7 507.8C33.3 505.7 66.7 501.3 100 502.3C133.3 503.3 166.7 509.7 200 508C233.3 506.3 266.7 496.7 300 495.3C333.3 494 366.7 501 400 503.7C433.3 506.3 466.7 504.7 500 501.5C533.3 498.3 566.7 493.7 600 495.8C633.3 498 666.7 507 700 510.3C733.3 513.7 766.7 511.3 800 505.8C833.3 500.3 866.7 491.7 883.3 487.3L900 483L900 601L883.3 601C866.7 601 833.3 601 800 601C766.7 601 733.3 601 700 601C666.7 601 633.3 601 600 601C566.7 601 533.3 601 500 601C466.7 601 433.3 601 400 601C366.7 601 333.3 601 300 601C266.7 601 233.3 601 200 601C166.7 601 133.3 601 100 601C66.7 601 33.3 601 16.7 601L0 601Z" fill="#1bc29e"></path><path d="M0 524L16.7 523.2C33.3 522.3 66.7 520.7 100 522.3C133.3 524 166.7 529 200 529C233.3 529 266.7 524 300 519.2C333.3 514.3 366.7 509.7 400 510.5C433.3 511.3 466.7 517.7 500 521.8C533.3 526 566.7 528 600 527.7C633.3 527.3 666.7 524.7 700 523.7C733.3 522.7 766.7 523.3 800 522C833.3 520.7 866.7 517.3 883.3 515.7L900 514L900 601L883.3 601C866.7 601 833.3 601 800 601C766.7 601 733.3 601 700 601C666.7 601 633.3 601 600 601C566.7 601 533.3 601 500 601C466.7 601 433.3 601 400 601C366.7 601 333.3 601 300 601C266.7 601 233.3 601 200 601C166.7 601 133.3 601 100 601C66.7 601 33.3 601 16.7 601L0 601Z" fill="#1bc29e"></path><path d="M0 566L16.7 560.8C33.3 555.7 66.7 545.3 100 544.2C133.3 543 166.7 551 200 551.7C233.3 552.3 266.7 545.7 300 541.2C333.3 536.7 366.7 534.3 400 535.7C433.3 537 466.7 542 500 546.7C533.3 551.3 566.7 555.7 600 553.7C633.3 551.7 666.7 543.3 700 538.7C733.3 534 766.7 533 800 534.2C833.3 535.3 866.7 538.7 883.3 540.3L900 542L900 601L883.3 601C866.7 601 833.3 601 800 601C766.7 601 733.3 601 700 601C666.7 601 633.3 601 600 601C566.7 601 533.3 601 500 601C466.7 601 433.3 601 400 601C366.7 601 333.3 601 300 601C266.7 601 233.3 601 200 601C166.7 601 133.3 601 100 601C66.7 601 33.3 601 16.7 601L0 601Z" fill="#00ab6e"></path><path d="M0 572L16.7 575.2C33.3 578.3 66.7 584.7 100 582.3C133.3 580 166.7 569 200 568.3C233.3 567.7 266.7 577.3 300 580C333.3 582.7 366.7 578.3 400 578C433.3 577.7 466.7 581.3 500 581.3C533.3 581.3 566.7 577.7 600 578.2C633.3 578.7 666.7 583.3 700 584.2C733.3 585 766.7 582 800 577.2C833.3 572.3 866.7 565.7 883.3 562.3L900 559L900 601L883.3 601C866.7 601 833.3 601 800 601C766.7 601 733.3 601 700 601C666.7 601 633.3 601 600 601C566.7 601 533.3 601 500 601C466.7 601 433.3 601 400 601C366.7 601 333.3 601 300 601C266.7 601 233.3 601 200 601C166.7 601 133.3 601 100 601C66.7 601 33.3 601 16.7 601L0 601Z" fill="#00943a"></path></svg>