<svg id="visual" viewBox="0 0 900 600" width="900" height="600" xmlns="http://www.w3.org/2000/svg" xmlns:xlink="http://www.w3.org/1999/xlink" version="1.1"><rect x="0" y="0" width="900" height="600" fill="#001122"></rect><defs><linearGradient id="grad1_0" x1="33.3%" y1="0%" x2="100%" y2="100%"><stop offset="20%" stop-color="#fa9e3c" stop-opacity="1"></stop><stop offset="80%" stop-color="#fa9e3c" stop-opacity="1"></stop></linearGradient></defs><defs><linearGradient id="grad1_1" x1="33.3%" y1="0%" x2="100%" y2="100%"><stop offset="20%" stop-color="#fa9e3c" stop-opacity="1"></stop><stop offset="80%" stop-color="#ee7750" stop-opacity="1"></stop></linearGradient></defs><defs><linearGradient id="grad1_2" x1="33.3%" y1="0%" x2="100%" y2="100%"><stop offset="20%" stop-color="#d15861" stop-opacity="1"></stop><stop offset="80%" stop-color="#ee7750" stop-opacity="1"></stop></linearGradient></defs><defs><linearGradient id="grad1_3" x1="33.3%" y1="0%" x2="100%" y2="100%"><stop offset="20%" stop-color="#d15861" stop-opacity="1"></stop><stop offset="80%" stop-color="#a84569" stop-opacity="1"></stop></linearGradient></defs><defs><linearGradient id="grad1_4" x1="33.3%" y1="0%" x2="100%" y2="100%"><stop offset="20%" stop-color="#783967" stop-opacity="1"></stop><stop offset="80%" stop-color="#a84569" stop-opacity="1"></stop></linearGradient></defs><defs><linearGradient id="grad1_5" x1="33.3%" y1="0%" x2="100%" y2="100%"><stop offset="20%" stop-color="#783967" stop-opacity="1"></stop><stop offset="80%" stop-color="#482f59" stop-opacity="1"></stop></linearGradient></defs><defs><linearGradient id="grad1_6" x1="33.3%" y1="0%" x2="100%" y2="100%"><stop offset="20%" stop-color="#1e2240" stop-opacity="1"></stop><stop offset="80%" stop-color="#482f59" stop-opacity="1"></stop></linearGradient></defs><defs><linearGradient id="grad1_7" x1="33.3%" y1="0%" x2="100%" y2="100%"><stop offset="20%" stop-color="#1e2240" stop-opacity="1"></stop><stop offset="80%" stop-color="#001122" stop-opacity="1"></stop></linearGradient></defs><defs><linearGradient id="grad2_0" x1="0%" y1="0%" x2="66.7%" y2="100%"><stop offset="20%" stop-color="#fa9e3c" stop-opacity="1"></stop><stop offset="80%" stop-color="#fa9e3c" stop-opacity="1"></stop></linearGradient></defs><defs><linearGradient id="grad2_1" x1="0%" y1="0%" x2="66.7%" y2="100%"><stop offset="20%" stop-color="#ee7750" stop-opacity="1"></stop><stop offset="80%" stop-color="#fa9e3c" stop-opacity="1"></stop></linearGradient></defs><defs><linearGradient id="grad2_2" x1="0%" y1="0%" x2="66.7%" y2="100%"><stop offset="20%" stop-color="#ee7750" stop-opacity="1"></stop><stop offset="80%" stop-color="#d15861" stop-opacity="1"></stop></linearGradient></defs><defs><linearGradient id="grad2_3" x1="0%" y1="0%" x2="66.7%" y2="100%"><stop offset="20%" stop-color="#a84569" stop-opacity="1"></stop><stop offset="80%" stop-color="#d15861" stop-opacity="1"></stop></linearGradient></defs><defs><linearGradient id="grad2_4" x1="0%" y1="0%" x2="66.7%" y2="100%"><stop offset="20%" stop-color="#a84569" stop-opacity="1"></stop><stop offset="80%" stop-color="#783967" stop-opacity="1"></stop></linearGradient></defs><defs><linearGradient id="grad2_5" x1="0%" y1="0%" x2="66.7%" y2="100%"><stop offset="20%" stop-color="#482f59" stop-opacity="1"></stop><stop offset="80%" stop-color="#783967" stop-opacity="1"></stop></linearGradient></defs><defs><linearGradient id="grad2_6" x1="0%" y1="0%" x2="66.7%" y2="100%"><stop offset="20%" stop-color="#482f59" stop-opacity="1"></stop><stop offset="80%" stop-color="#1e2240" stop-opacity="1"></stop></linearGradient></defs><defs><linearGradient id="grad2_7" x1="0%" y1="0%" x2="66.7%" y2="100%"><stop offset="20%" stop-color="#001122" stop-opacity="1"></stop><stop offset="80%" stop-color="#1e2240" stop-opacity="1"></stop></linearGradient></defs><g transform="translate(900, 0)"><path d="M0 486.7C-62.5 473.6 -125.1 460.5 -180.2 435.1C-235.4 409.8 -283.1 372.2 -330.2 330.2C-377.3 288.3 -423.7 242 -449.7 186.3C-475.7 130.5 -481.2 65.3 -486.7 0L0 0Z" fill="#0d1a31"></path><path d="M0 425.9C-54.7 414.4 -109.5 403 -157.7 380.8C-206 358.6 -247.7 325.6 -288.9 288.9C-330.1 252.2 -370.8 211.8 -393.5 163C-416.2 114.2 -421.1 57.1 -425.9 0L0 0Z" fill="#32294d"></path><path d="M0 365.1C-46.9 355.2 -93.8 345.4 -135.2 326.4C-176.5 307.3 -212.4 279.1 -247.7 247.7C-283 216.2 -317.8 181.5 -337.3 139.7C-356.8 97.9 -360.9 48.9 -365.1 0L0 0Z" fill="#603561"></path><path d="M0 304.2C-39.1 296 -78.2 287.8 -112.7 272C-147.1 256.1 -177 232.6 -206.4 206.4C-235.8 180.2 -264.8 151.3 -281.1 116.4C-297.3 81.6 -300.8 40.8 -304.2 0L0 0Z" fill="#913f6a"></path><path d="M0 243.4C-31.3 236.8 -62.5 230.3 -90.1 217.6C-117.7 204.9 -141.6 186.1 -165.1 165.1C-188.7 144.1 -211.9 121 -224.8 93.1C-237.8 65.3 -240.6 32.6 -243.4 0L0 0Z" fill="#be4d66"></path><path d="M0 182.5C-23.5 177.6 -46.9 172.7 -67.6 163.2C-88.3 153.7 -106.2 139.6 -123.8 123.8C-141.5 108.1 -158.9 90.8 -168.6 69.9C-178.4 48.9 -180.5 24.5 -182.5 0L0 0Z" fill="#e16659"></path><path d="M0 121.7C-15.6 118.4 -31.3 115.1 -45.1 108.8C-58.8 102.4 -70.8 93 -82.6 82.6C-94.3 72.1 -105.9 60.5 -112.4 46.6C-118.9 32.6 -120.3 16.3 -121.7 0L0 0Z" fill="#f68a46"></path><path d="M0 60.8C-7.8 59.2 -15.6 57.6 -22.5 54.4C-29.4 51.2 -35.4 46.5 -41.3 41.3C-47.2 36 -53 30.3 -56.2 23.3C-59.5 16.3 -60.2 8.2 -60.8 0L0 0Z" fill="#fa9e3c"></path></g><g transform="translate(0, 600)"><path d="M0 -486.7C66.6 -483.6 133.1 -480.4 186.3 -449.7C239.4 -419 279.1 -360.6 308.3 -308.3C337.5 -256 356.3 -209.6 384.3 -159.2C412.3 -108.8 449.5 -54.4 486.7 0L0 0Z" fill="#0d1a31"></path><path d="M0 -425.9C58.3 -423.1 116.5 -420.4 163 -393.5C209.5 -366.6 244.2 -315.6 269.8 -269.8C295.3 -224 311.8 -183.4 336.3 -139.3C360.8 -95.2 393.4 -47.6 425.9 0L0 0Z" fill="#32294d"></path><path d="M0 -365.1C49.9 -362.7 99.9 -360.3 139.7 -337.3C179.5 -314.2 209.3 -270.5 231.2 -231.2C253.1 -192 267.2 -157.2 288.3 -119.4C309.3 -81.6 337.2 -40.8 365.1 0L0 0Z" fill="#603561"></path><path d="M0 -304.2C41.6 -302.2 83.2 -300.3 116.4 -281.1C149.6 -261.9 174.4 -225.4 192.7 -192.7C211 -160 222.7 -131 240.2 -99.5C257.7 -68 281 -34 304.2 0L0 0Z" fill="#913f6a"></path><path d="M0 -243.4C33.3 -241.8 66.6 -240.2 93.1 -224.8C119.7 -209.5 139.5 -180.3 154.1 -154.1C168.8 -128 178.2 -104.8 192.2 -79.6C206.2 -54.4 224.8 -27.2 243.4 0L0 0Z" fill="#be4d66"></path><path d="M0 -182.5C25 -181.3 49.9 -180.2 69.9 -168.6C89.8 -157.1 104.6 -135.2 115.6 -115.6C126.6 -96 133.6 -78.6 144.1 -59.7C154.6 -40.8 168.6 -20.4 182.5 0L0 0Z" fill="#e16659"></path><path d="M0 -121.7C16.6 -120.9 33.3 -120.1 46.6 -112.4C59.8 -104.7 69.8 -90.2 77.1 -77.1C84.4 -64 89.1 -52.4 96.1 -39.8C103.1 -27.2 112.4 -13.6 121.7 0L0 0Z" fill="#f68a46"></path><path d="M0 -60.8C8.3 -60.4 16.6 -60.1 23.3 -56.2C29.9 -52.4 34.9 -45.1 38.5 -38.5C42.2 -32 44.5 -26.2 48 -19.9C51.5 -13.6 56.2 -6.8 60.8 0L0 0Z" fill="#fa9e3c"></path></g></svg>