<svg id="visual" viewBox="0 0 900 600" width="900" height="600" xmlns="http://www.w3.org/2000/svg" xmlns:xlink="http://www.w3.org/1999/xlink" version="1.1"><path d="M0 49L82 49L82 91L164 91L164 79L245 79L245 37L327 37L327 91L409 91L409 67L491 67L491 49L573 49L573 49L655 49L655 85L736 85L736 73L818 73L818 85L900 85L900 55L900 0L900 0L818 0L818 0L736 0L736 0L655 0L655 0L573 0L573 0L491 0L491 0L409 0L409 0L327 0L327 0L245 0L245 0L164 0L164 0L82 0L82 0L0 0Z" fill="#fa7268"></path><path d="M0 103L82 103L82 205L164 205L164 193L245 193L245 79L327 79L327 199L409 199L409 139L491 139L491 181L573 181L573 169L655 169L655 133L736 133L736 199L818 199L818 151L900 151L900 133L900 53L900 83L818 83L818 71L736 71L736 83L655 83L655 47L573 47L573 47L491 47L491 65L409 65L409 89L327 89L327 35L245 35L245 77L164 77L164 89L82 89L82 47L0 47Z" fill="#ed5d52"></path><path d="M0 385L82 385L82 337L164 337L164 403L245 403L245 301L327 301L327 343L409 343L409 295L491 295L491 403L573 403L573 265L655 265L655 397L736 397L736 397L818 397L818 337L900 337L900 283L900 131L900 149L818 149L818 197L736 197L736 131L655 131L655 167L573 167L573 179L491 179L491 137L409 137L409 197L327 197L327 77L245 77L245 191L164 191L164 203L82 203L82 101L0 101Z" fill="#e0483c"></path><path d="M0 511L82 511L82 505L164 505L164 547L245 547L245 415L327 415L327 541L409 541L409 475L491 475L491 517L573 517L573 529L655 529L655 541L736 541L736 535L818 535L818 535L900 535L900 529L900 281L900 335L818 335L818 395L736 395L736 395L655 395L655 263L573 263L573 401L491 401L491 293L409 293L409 341L327 341L327 299L245 299L245 401L164 401L164 335L82 335L82 383L0 383Z" fill="#d23026"></path><path d="M0 601L82 601L82 601L164 601L164 601L245 601L245 601L327 601L327 601L409 601L409 601L491 601L491 601L573 601L573 601L655 601L655 601L736 601L736 601L818 601L818 601L900 601L900 601L900 527L900 533L818 533L818 533L736 533L736 539L655 539L655 527L573 527L573 515L491 515L491 473L409 473L409 539L327 539L327 413L245 413L245 545L164 545L164 503L82 503L82 509L0 509Z" fill="#c30e0e"></path></svg>