<svg id="visual" viewBox="0 0 900 600" width="900" height="600" xmlns="http://www.w3.org/2000/svg" xmlns:xlink="http://www.w3.org/1999/xlink" version="1.1"><path d="M0 55L16.7 54C33.3 53 66.7 51 100 50C133.3 49 166.7 49 200 52C233.3 55 266.7 61 300 63C333.3 65 366.7 63 400 61C433.3 59 466.7 57 500 58C533.3 59 566.7 63 600 62C633.3 61 666.7 55 700 55C733.3 55 766.7 61 800 61C833.3 61 866.7 55 883.3 52L900 49L900 0L883.3 0C866.7 0 833.3 0 800 0C766.7 0 733.3 0 700 0C666.7 0 633.3 0 600 0C566.7 0 533.3 0 500 0C466.7 0 433.3 0 400 0C366.7 0 333.3 0 300 0C266.7 0 233.3 0 200 0C166.7 0 133.3 0 100 0C66.7 0 33.3 0 16.7 0L0 0Z" fill="#7babfe"></path><path d="M0 193L16.7 191C33.3 189 66.7 185 100 184C133.3 183 166.7 185 200 190C233.3 195 266.7 203 300 206C333.3 209 366.7 207 400 211C433.3 215 466.7 225 500 226C533.3 227 566.7 219 600 212C633.3 205 666.7 199 700 198C733.3 197 766.7 201 800 204C833.3 207 866.7 209 883.3 210L900 211L900 47L883.3 50C866.7 53 833.3 59 800 59C766.7 59 733.3 53 700 53C666.7 53 633.3 59 600 60C566.7 61 533.3 57 500 56C466.7 55 433.3 57 400 59C366.7 61 333.3 63 300 61C266.7 59 233.3 53 200 50C166.7 47 133.3 47 100 48C66.7 49 33.3 51 16.7 52L0 53Z" fill="#629bfc"></path><path d="M0 343L16.7 345C33.3 347 66.7 351 100 353C133.3 355 166.7 355 200 358C233.3 361 266.7 367 300 366C333.3 365 366.7 357 400 357C433.3 357 466.7 365 500 367C533.3 369 566.7 365 600 361C633.3 357 666.7 353 700 354C733.3 355 766.7 361 800 360C833.3 359 866.7 351 883.3 347L900 343L900 209L883.3 208C866.7 207 833.3 205 800 202C766.7 199 733.3 195 700 196C666.7 197 633.3 203 600 210C566.7 217 533.3 225 500 224C466.7 223 433.3 213 400 209C366.7 205 333.3 207 300 204C266.7 201 233.3 193 200 188C166.7 183 133.3 181 100 182C66.7 183 33.3 187 16.7 189L0 191Z" fill="#478cfa"></path><path d="M0 427L16.7 429C33.3 431 66.7 435 100 434C133.3 433 166.7 427 200 427C233.3 427 266.7 433 300 433C333.3 433 366.7 427 400 431C433.3 435 466.7 449 500 453C533.3 457 566.7 451 600 445C633.3 439 666.7 433 700 432C733.3 431 766.7 435 800 433C833.3 431 866.7 423 883.3 419L900 415L900 341L883.3 345C866.7 349 833.3 357 800 358C766.7 359 733.3 353 700 352C666.7 351 633.3 355 600 359C566.7 363 533.3 367 500 365C466.7 363 433.3 355 400 355C366.7 355 333.3 363 300 364C266.7 365 233.3 359 200 356C166.7 353 133.3 353 100 351C66.7 349 33.3 345 16.7 343L0 341Z" fill="#337dec"></path><path d="M0 499L16.7 501C33.3 503 66.7 507 100 504C133.3 501 166.7 491 200 487C233.3 483 266.7 485 300 486C333.3 487 366.7 487 400 492C433.3 497 466.7 507 500 512C533.3 517 566.7 517 600 513C633.3 509 666.7 501 700 499C733.3 497 766.7 501 800 500C833.3 499 866.7 493 883.3 490L900 487L900 413L883.3 417C866.7 421 833.3 429 800 431C766.7 433 733.3 429 700 430C666.7 431 633.3 437 600 443C566.7 449 533.3 455 500 451C466.7 447 433.3 433 400 429C366.7 425 333.3 431 300 431C266.7 431 233.3 425 200 425C166.7 425 133.3 431 100 432C66.7 433 33.3 429 16.7 427L0 425Z" fill="#2c6ed3"></path><path d="M0 601L16.7 601C33.3 601 66.7 601 100 601C133.3 601 166.7 601 200 601C233.3 601 266.7 601 300 601C333.3 601 366.7 601 400 601C433.3 601 466.7 601 500 601C533.3 601 566.7 601 600 601C633.3 601 666.7 601 700 601C733.3 601 766.7 601 800 601C833.3 601 866.7 601 883.3 601L900 601L900 485L883.3 488C866.7 491 833.3 497 800 498C766.7 499 733.3 495 700 497C666.7 499 633.3 507 600 511C566.7 515 533.3 515 500 510C466.7 505 433.3 495 400 490C366.7 485 333.3 485 300 484C266.7 483 233.3 481 200 485C166.7 489 133.3 499 100 502C66.7 505 33.3 501 16.7 499L0 497Z" fill="#2560bb"></path></svg>