<svg id="visual" viewBox="0 0 900 600" width="900" height="600" xmlns="http://www.w3.org/2000/svg" xmlns:xlink="http://www.w3.org/1999/xlink" version="1.1"><rect x="0" y="0" width="900" height="600" fill="#1b1b46"></rect><path d="M0 368L16.7 375.8C33.3 383.7 66.7 399.3 100 401.7C133.3 404 166.7 393 200 392C233.3 391 266.7 400 300 399.5C333.3 399 366.7 389 400 383C433.3 377 466.7 375 500 381.8C533.3 388.7 566.7 404.3 600 405.7C633.3 407 666.7 394 700 392.3C733.3 390.7 766.7 400.3 800 401.7C833.3 403 866.7 396 883.3 392.5L900 389L900 601L883.3 601C866.7 601 833.3 601 800 601C766.7 601 733.3 601 700 601C666.7 601 633.3 601 600 601C566.7 601 533.3 601 500 601C466.7 601 433.3 601 400 601C366.7 601 333.3 601 300 601C266.7 601 233.3 601 200 601C166.7 601 133.3 601 100 601C66.7 601 33.3 601 16.7 601L0 601Z" fill="#ff6f61"></path><path d="M0 415L16.7 421.3C33.3 427.7 66.7 440.3 100 446C133.3 451.7 166.7 450.3 200 447.2C233.3 444 266.7 439 300 441.7C333.3 444.3 366.7 454.7 400 456C433.3 457.3 466.7 449.7 500 450.7C533.3 451.7 566.7 461.3 600 458.7C633.3 456 666.7 441 700 439.2C733.3 437.3 766.7 448.7 800 451.8C833.3 455 866.7 450 883.3 447.5L900 445L900 601L883.3 601C866.7 601 833.3 601 800 601C766.7 601 733.3 601 700 601C666.7 601 633.3 601 600 601C566.7 601 533.3 601 500 601C466.7 601 433.3 601 400 601C366.7 601 333.3 601 300 601C266.7 601 233.3 601 200 601C166.7 601 133.3 601 100 601C66.7 601 33.3 601 16.7 601L0 601Z" fill="#f35c62"></path><path d="M0 464L16.7 468.2C33.3 472.3 66.7 480.7 100 480.5C133.3 480.3 166.7 471.7 200 474C233.3 476.3 266.7 489.7 300 489.7C333.3 489.7 366.7 476.3 400 475.5C433.3 474.7 466.7 486.3 500 490.7C533.3 495 566.7 492 600 488C633.3 484 666.7 479 700 477.2C733.3 475.3 766.7 476.7 800 472.8C833.3 469 866.7 460 883.3 455.5L900 451L900 601L883.3 601C866.7 601 833.3 601 800 601C766.7 601 733.3 601 700 601C666.7 601 633.3 601 600 601C566.7 601 533.3 601 500 601C466.7 601 433.3 601 400 601C366.7 601 333.3 601 300 601C266.7 601 233.3 601 200 601C166.7 601 133.3 601 100 601C66.7 601 33.3 601 16.7 601L0 601Z" fill="#e64964"></path><path d="M0 518L16.7 517.2C33.3 516.3 66.7 514.7 100 516.7C133.3 518.7 166.7 524.3 200 521.2C233.3 518 266.7 506 300 505.7C333.3 505.3 366.7 516.7 400 522.3C433.3 528 466.7 528 500 521.5C533.3 515 566.7 502 600 502.3C633.3 502.7 666.7 516.3 700 520.7C733.3 525 766.7 520 800 519.7C833.3 519.3 866.7 523.7 883.3 525.8L900 528L900 601L883.3 601C866.7 601 833.3 601 800 601C766.7 601 733.3 601 700 601C666.7 601 633.3 601 600 601C566.7 601 533.3 601 500 601C466.7 601 433.3 601 400 601C366.7 601 333.3 601 300 601C266.7 601 233.3 601 200 601C166.7 601 133.3 601 100 601C66.7 601 33.3 601 16.7 601L0 601Z" fill="#d73666"></path><path d="M0 534L16.7 535C33.3 536 66.7 538 100 538C133.3 538 166.7 536 200 541.8C233.3 547.7 266.7 561.3 300 567C333.3 572.7 366.7 570.3 400 571.5C433.3 572.7 466.7 577.3 500 576.5C533.3 575.7 566.7 569.3 600 569.2C633.3 569 666.7 575 700 570.2C733.3 565.3 766.7 549.7 800 547.5C833.3 545.3 866.7 556.7 883.3 562.3L900 568L900 601L883.3 601C866.7 601 833.3 601 800 601C766.7 601 733.3 601 700 601C666.7 601 633.3 601 600 601C566.7 601 533.3 601 500 601C466.7 601 433.3 601 400 601C366.7 601 333.3 601 300 601C266.7 601 233.3 601 200 601C166.7 601 133.3 601 100 601C66.7 601 33.3 601 16.7 601L0 601Z" fill="#c62368"></path></svg>