<svg id="visual" viewBox="0 0 900 600" width="900" height="600" xmlns="http://www.w3.org/2000/svg" xmlns:xlink="http://www.w3.org/1999/xlink" version="1.1"><g><g transform="translate(282 585)"><path d="M0 -13.1L5.7 -11.8L10.3 -8.2L12.8 -2.9L12.8 2.9L10.3 8.2L5.7 11.8L0 13.1L-5.7 11.8L-10.3 8.2L-12.8 2.9L-12.8 -2.9L-10.3 -8.2L-5.7 -11.8Z" fill="#297EA6"></path></g><g transform="translate(492 235)"><path d="M0 -12L5.2 -10.8L9.4 -7.5L11.7 -2.7L11.7 2.7L9.4 7.5L5.2 10.8L0 12L-5.2 10.8L-9.4 7.5L-11.7 2.7L-11.7 -2.7L-9.4 -7.5L-5.2 -10.8Z" fill="#297EA6"></path></g><g transform="translate(506 322)"><path d="M0 -11L4.8 -9.9L8.6 -6.9L10.7 -2.4L10.7 2.4L8.6 6.9L4.8 9.9L0 11L-4.8 9.9L-8.6 6.9L-10.7 2.4L-10.7 -2.4L-8.6 -6.9L-4.8 -9.9Z" fill="#297EA6"></path></g><g transform="translate(268 526)"><path d="M0 -11L4.8 -9.9L8.6 -6.9L10.7 -2.4L10.7 2.4L8.6 6.9L4.8 9.9L0 11L-4.8 9.9L-8.6 6.9L-10.7 2.4L-10.7 -2.4L-8.6 -6.9L-4.8 -9.9Z" fill="#297EA6"></path></g><g transform="translate(179 445)"><path d="M0 -7L3 -6.3L5.5 -4.4L6.8 -1.6L6.8 1.6L5.5 4.4L3 6.3L0 7L-3 6.3L-5.5 4.4L-6.8 1.6L-6.8 -1.6L-5.5 -4.4L-3 -6.3Z" fill="#297EA6"></path></g><g transform="translate(205 274)"><path d="M0 -12L5.2 -10.8L9.4 -7.5L11.7 -2.7L11.7 2.7L9.4 7.5L5.2 10.8L0 12L-5.2 10.8L-9.4 7.5L-11.7 2.7L-11.7 -2.7L-9.4 -7.5L-5.2 -10.8Z" fill="#297EA6"></path></g><g transform="translate(112 225)"><path d="M0 -8L3.5 -7.2L6.3 -5L7.8 -1.8L7.8 1.8L6.3 5L3.5 7.2L0 8L-3.5 7.2L-6.3 5L-7.8 1.8L-7.8 -1.8L-6.3 -5L-3.5 -7.2Z" fill="#297EA6"></path></g><g transform="translate(596 242)"><path d="M0 -9L3.9 -8.1L7 -5.6L8.8 -2L8.8 2L7 5.6L3.9 8.1L0 9L-3.9 8.1L-7 5.6L-8.8 2L-8.8 -2L-7 -5.6L-3.9 -8.1Z" fill="#297EA6"></path></g><g transform="translate(389 7)"><path d="M0 -12L5.2 -10.8L9.4 -7.5L11.7 -2.7L11.7 2.7L9.4 7.5L5.2 10.8L0 12L-5.2 10.8L-9.4 7.5L-11.7 2.7L-11.7 -2.7L-9.4 -7.5L-5.2 -10.8Z" fill="#297EA6"></path></g><g transform="translate(573 215)"><path d="M0 -8L3.5 -7.2L6.3 -5L7.8 -1.8L7.8 1.8L6.3 5L3.5 7.2L0 8L-3.5 7.2L-6.3 5L-7.8 1.8L-7.8 -1.8L-6.3 -5L-3.5 -7.2Z" fill="#297EA6"></path></g><g transform="translate(803 506)"><path d="M0 -10L4.3 -9L7.8 -6.2L9.7 -2.2L9.7 2.2L7.8 6.2L4.3 9L0 10L-4.3 9L-7.8 6.2L-9.7 2.2L-9.7 -2.2L-7.8 -6.2L-4.3 -9Z" fill="#297EA6"></path></g><g transform="translate(739 496)"><path d="M0 -6L2.6 -5.4L4.7 -3.7L5.8 -1.3L5.8 1.3L4.7 3.7L2.6 5.4L0 6L-2.6 5.4L-4.7 3.7L-5.8 1.3L-5.8 -1.3L-4.7 -3.7L-2.6 -5.4Z" fill="#297EA6"></path></g><g transform="translate(498 523)"><path d="M0 -7L3 -6.3L5.5 -4.4L6.8 -1.6L6.8 1.6L5.5 4.4L3 6.3L0 7L-3 6.3L-5.5 4.4L-6.8 1.6L-6.8 -1.6L-5.5 -4.4L-3 -6.3Z" fill="#297EA6"></path></g><g transform="translate(61 162)"><path d="M0 -12L5.2 -10.8L9.4 -7.5L11.7 -2.7L11.7 2.7L9.4 7.5L5.2 10.8L0 12L-5.2 10.8L-9.4 7.5L-11.7 2.7L-11.7 -2.7L-9.4 -7.5L-5.2 -10.8Z" fill="#297EA6"></path></g><g transform="translate(418 564)"><path d="M0 -8L3.5 -7.2L6.3 -5L7.8 -1.8L7.8 1.8L6.3 5L3.5 7.2L0 8L-3.5 7.2L-6.3 5L-7.8 1.8L-7.8 -1.8L-6.3 -5L-3.5 -7.2Z" fill="#297EA6"></path></g><g transform="translate(77 389)"><path d="M0 -8L3.5 -7.2L6.3 -5L7.8 -1.8L7.8 1.8L6.3 5L3.5 7.2L0 8L-3.5 7.2L-6.3 5L-7.8 1.8L-7.8 -1.8L-6.3 -5L-3.5 -7.2Z" fill="#297EA6"></path></g><g transform="translate(654 228)"><path d="M0 -7L3 -6.3L5.5 -4.4L6.8 -1.6L6.8 1.6L5.5 4.4L3 6.3L0 7L-3 6.3L-5.5 4.4L-6.8 1.6L-6.8 -1.6L-5.5 -4.4L-3 -6.3Z" fill="#297EA6"></path></g><g transform="translate(649 500)"><path d="M0 -8L3.5 -7.2L6.3 -5L7.8 -1.8L7.8 1.8L6.3 5L3.5 7.2L0 8L-3.5 7.2L-6.3 5L-7.8 1.8L-7.8 -1.8L-6.3 -5L-3.5 -7.2Z" fill="#297EA6"></path></g><g transform="translate(398 451)"><path d="M0 -8L3.5 -7.2L6.3 -5L7.8 -1.8L7.8 1.8L6.3 5L3.5 7.2L0 8L-3.5 7.2L-6.3 5L-7.8 1.8L-7.8 -1.8L-6.3 -5L-3.5 -7.2Z" fill="#297EA6"></path></g><g transform="translate(183 244)"><path d="M0 -10L4.3 -9L7.8 -6.2L9.7 -2.2L9.7 2.2L7.8 6.2L4.3 9L0 10L-4.3 9L-7.8 6.2L-9.7 2.2L-9.7 -2.2L-7.8 -6.2L-4.3 -9Z" fill="#297EA6"></path></g><g transform="translate(846 97)"><path d="M0 -9L3.9 -8.1L7 -5.6L8.8 -2L8.8 2L7 5.6L3.9 8.1L0 9L-3.9 8.1L-7 5.6L-8.8 2L-8.8 -2L-7 -5.6L-3.9 -8.1Z" fill="#297EA6"></path></g><g transform="translate(475 260)"><path d="M0 -6L2.6 -5.4L4.7 -3.7L5.8 -1.3L5.8 1.3L4.7 3.7L2.6 5.4L0 6L-2.6 5.4L-4.7 3.7L-5.8 1.3L-5.8 -1.3L-4.7 -3.7L-2.6 -5.4Z" fill="#297EA6"></path></g><g transform="translate(601 301)"><path d="M0 -8L3.5 -7.2L6.3 -5L7.8 -1.8L7.8 1.8L6.3 5L3.5 7.2L0 8L-3.5 7.2L-6.3 5L-7.8 1.8L-7.8 -1.8L-6.3 -5L-3.5 -7.2Z" fill="#297EA6"></path></g><g transform="translate(700 567)"><path d="M0 -7L3 -6.3L5.5 -4.4L6.8 -1.6L6.8 1.6L5.5 4.4L3 6.3L0 7L-3 6.3L-5.5 4.4L-6.8 1.6L-6.8 -1.6L-5.5 -4.4L-3 -6.3Z" fill="#297EA6"></path></g><g transform="translate(342 503)"><path d="M0 -10L4.3 -9L7.8 -6.2L9.7 -2.2L9.7 2.2L7.8 6.2L4.3 9L0 10L-4.3 9L-7.8 6.2L-9.7 2.2L-9.7 -2.2L-7.8 -6.2L-4.3 -9Z" fill="#297EA6"></path></g><g transform="translate(869 569)"><path d="M0 -6L2.6 -5.4L4.7 -3.7L5.8 -1.3L5.8 1.3L4.7 3.7L2.6 5.4L0 6L-2.6 5.4L-4.7 3.7L-5.8 1.3L-5.8 -1.3L-4.7 -3.7L-2.6 -5.4Z" fill="#297EA6"></path></g><g transform="translate(318 164)"><path d="M0 -9L3.9 -8.1L7 -5.6L8.8 -2L8.8 2L7 5.6L3.9 8.1L0 9L-3.9 8.1L-7 5.6L-8.8 2L-8.8 -2L-7 -5.6L-3.9 -8.1Z" fill="#297EA6"></path></g><g transform="translate(824 372)"><path d="M0 -6L2.6 -5.4L4.7 -3.7L5.8 -1.3L5.8 1.3L4.7 3.7L2.6 5.4L0 6L-2.6 5.4L-4.7 3.7L-5.8 1.3L-5.8 -1.3L-4.7 -3.7L-2.6 -5.4Z" fill="#297EA6"></path></g><g transform="translate(149 496)"><path d="M0 -7L3 -6.3L5.5 -4.4L6.8 -1.6L6.8 1.6L5.5 4.4L3 6.3L0 7L-3 6.3L-5.5 4.4L-6.8 1.6L-6.8 -1.6L-5.5 -4.4L-3 -6.3Z" fill="#297EA6"></path></g><g transform="translate(99 26)"><path d="M0 -10L4.3 -9L7.8 -6.2L9.7 -2.2L9.7 2.2L7.8 6.2L4.3 9L0 10L-4.3 9L-7.8 6.2L-9.7 2.2L-9.7 -2.2L-7.8 -6.2L-4.3 -9Z" fill="#297EA6"></path></g><g transform="translate(710 422)"><path d="M0 -12L5.2 -10.8L9.4 -7.5L11.7 -2.7L11.7 2.7L9.4 7.5L5.2 10.8L0 12L-5.2 10.8L-9.4 7.5L-11.7 2.7L-11.7 -2.7L-9.4 -7.5L-5.2 -10.8Z" fill="#297EA6"></path></g><g transform="translate(480 571)"><path d="M0 -9L3.9 -8.1L7 -5.6L8.8 -2L8.8 2L7 5.6L3.9 8.1L0 9L-3.9 8.1L-7 5.6L-8.8 2L-8.8 -2L-7 -5.6L-3.9 -8.1Z" fill="#297EA6"></path></g><g transform="translate(673 191)"><path d="M0 -10L4.3 -9L7.8 -6.2L9.7 -2.2L9.7 2.2L7.8 6.2L4.3 9L0 10L-4.3 9L-7.8 6.2L-9.7 2.2L-9.7 -2.2L-7.8 -6.2L-4.3 -9Z" fill="#297EA6"></path></g><g transform="translate(453 135)"><path d="M0 -10L4.3 -9L7.8 -6.2L9.7 -2.2L9.7 2.2L7.8 6.2L4.3 9L0 10L-4.3 9L-7.8 6.2L-9.7 2.2L-9.7 -2.2L-7.8 -6.2L-4.3 -9Z" fill="#297EA6"></path></g><g transform="translate(119 171)"><path d="M0 -9L3.9 -8.1L7 -5.6L8.8 -2L8.8 2L7 5.6L3.9 8.1L0 9L-3.9 8.1L-7 5.6L-8.8 2L-8.8 -2L-7 -5.6L-3.9 -8.1Z" fill="#297EA6"></path></g><g transform="translate(218 62)"><path d="M0 -12L5.2 -10.8L9.4 -7.5L11.7 -2.7L11.7 2.7L9.4 7.5L5.2 10.8L0 12L-5.2 10.8L-9.4 7.5L-11.7 2.7L-11.7 -2.7L-9.4 -7.5L-5.2 -10.8Z" fill="#297EA6"></path></g><g transform="translate(571 346)"><path d="M0 -10L4.3 -9L7.8 -6.2L9.7 -2.2L9.7 2.2L7.8 6.2L4.3 9L0 10L-4.3 9L-7.8 6.2L-9.7 2.2L-9.7 -2.2L-7.8 -6.2L-4.3 -9Z" fill="#297EA6"></path></g><g transform="translate(612 53)"><path d="M0 -6L2.6 -5.4L4.7 -3.7L5.8 -1.3L5.8 1.3L4.7 3.7L2.6 5.4L0 6L-2.6 5.4L-4.7 3.7L-5.8 1.3L-5.8 -1.3L-4.7 -3.7L-2.6 -5.4Z" fill="#297EA6"></path></g><g transform="translate(336 590)"><path d="M0 -11L4.8 -9.9L8.6 -6.9L10.7 -2.4L10.7 2.4L8.6 6.9L4.8 9.9L0 11L-4.8 9.9L-8.6 6.9L-10.7 2.4L-10.7 -2.4L-8.6 -6.9L-4.8 -9.9Z" fill="#297EA6"></path></g><g transform="translate(260 70)"><path d="M0 -6L2.6 -5.4L4.7 -3.7L5.8 -1.3L5.8 1.3L4.7 3.7L2.6 5.4L0 6L-2.6 5.4L-4.7 3.7L-5.8 1.3L-5.8 -1.3L-4.7 -3.7L-2.6 -5.4Z" fill="#297EA6"></path></g><g transform="translate(336 450)"><path d="M0 -12L5.2 -10.8L9.4 -7.5L11.7 -2.7L11.7 2.7L9.4 7.5L5.2 10.8L0 12L-5.2 10.8L-9.4 7.5L-11.7 2.7L-11.7 -2.7L-9.4 -7.5L-5.2 -10.8Z" fill="#297EA6"></path></g><g transform="translate(812 421)"><path d="M0 -6L2.6 -5.4L4.7 -3.7L5.8 -1.3L5.8 1.3L4.7 3.7L2.6 5.4L0 6L-2.6 5.4L-4.7 3.7L-5.8 1.3L-5.8 -1.3L-4.7 -3.7L-2.6 -5.4Z" fill="#297EA6"></path></g><g transform="translate(569 525)"><path d="M0 -11L4.8 -9.9L8.6 -6.9L10.7 -2.4L10.7 2.4L8.6 6.9L4.8 9.9L0 11L-4.8 9.9L-8.6 6.9L-10.7 2.4L-10.7 -2.4L-8.6 -6.9L-4.8 -9.9Z" fill="#297EA6"></path></g><g transform="translate(707 60)"><path d="M0 -10L4.3 -9L7.8 -6.2L9.7 -2.2L9.7 2.2L7.8 6.2L4.3 9L0 10L-4.3 9L-7.8 6.2L-9.7 2.2L-9.7 -2.2L-7.8 -6.2L-4.3 -9Z" fill="#297EA6"></path></g><g transform="translate(447 479)"><path d="M0 -8L3.5 -7.2L6.3 -5L7.8 -1.8L7.8 1.8L6.3 5L3.5 7.2L0 8L-3.5 7.2L-6.3 5L-7.8 1.8L-7.8 -1.8L-6.3 -5L-3.5 -7.2Z" fill="#297EA6"></path></g><g transform="translate(42 491)"><path d="M0 -9L3.9 -8.1L7 -5.6L8.8 -2L8.8 2L7 5.6L3.9 8.1L0 9L-3.9 8.1L-7 5.6L-8.8 2L-8.8 -2L-7 -5.6L-3.9 -8.1Z" fill="#297EA6"></path></g><g transform="translate(446 380)"><path d="M0 -10L4.3 -9L7.8 -6.2L9.7 -2.2L9.7 2.2L7.8 6.2L4.3 9L0 10L-4.3 9L-7.8 6.2L-9.7 2.2L-9.7 -2.2L-7.8 -6.2L-4.3 -9Z" fill="#297EA6"></path></g><g transform="translate(133 268)"><path d="M0 -6L2.6 -5.4L4.7 -3.7L5.8 -1.3L5.8 1.3L4.7 3.7L2.6 5.4L0 6L-2.6 5.4L-4.7 3.7L-5.8 1.3L-5.8 -1.3L-4.7 -3.7L-2.6 -5.4Z" fill="#297EA6"></path></g><g transform="translate(32 155)"><path d="M0 -12L5.2 -10.8L9.4 -7.5L11.7 -2.7L11.7 2.7L9.4 7.5L5.2 10.8L0 12L-5.2 10.8L-9.4 7.5L-11.7 2.7L-11.7 -2.7L-9.4 -7.5L-5.2 -10.8Z" fill="#297EA6"></path></g><g transform="translate(573 485)"><path d="M0 -7L3 -6.3L5.5 -4.4L6.8 -1.6L6.8 1.6L5.5 4.4L3 6.3L0 7L-3 6.3L-5.5 4.4L-6.8 1.6L-6.8 -1.6L-5.5 -4.4L-3 -6.3Z" fill="#297EA6"></path></g><g transform="translate(430 93)"><path d="M0 -6L2.6 -5.4L4.7 -3.7L5.8 -1.3L5.8 1.3L4.7 3.7L2.6 5.4L0 6L-2.6 5.4L-4.7 3.7L-5.8 1.3L-5.8 -1.3L-4.7 -3.7L-2.6 -5.4Z" fill="#297EA6"></path></g><g transform="translate(621 445)"><path d="M0 -8L3.5 -7.2L6.3 -5L7.8 -1.8L7.8 1.8L6.3 5L3.5 7.2L0 8L-3.5 7.2L-6.3 5L-7.8 1.8L-7.8 -1.8L-6.3 -5L-3.5 -7.2Z" fill="#297EA6"></path></g><g transform="translate(857 417)"><path d="M0 -9L3.9 -8.1L7 -5.6L8.8 -2L8.8 2L7 5.6L3.9 8.1L0 9L-3.9 8.1L-7 5.6L-8.8 2L-8.8 -2L-7 -5.6L-3.9 -8.1Z" fill="#297EA6"></path></g><g transform="translate(289 346)"><path d="M0 -12L5.2 -10.8L9.4 -7.5L11.7 -2.7L11.7 2.7L9.4 7.5L5.2 10.8L0 12L-5.2 10.8L-9.4 7.5L-11.7 2.7L-11.7 -2.7L-9.4 -7.5L-5.2 -10.8Z" fill="#297EA6"></path></g><g transform="translate(734 260)"><path d="M0 -9L3.9 -8.1L7 -5.6L8.8 -2L8.8 2L7 5.6L3.9 8.1L0 9L-3.9 8.1L-7 5.6L-8.8 2L-8.8 -2L-7 -5.6L-3.9 -8.1Z" fill="#297EA6"></path></g><g transform="translate(75 100)"><path d="M0 -10L4.3 -9L7.8 -6.2L9.7 -2.2L9.7 2.2L7.8 6.2L4.3 9L0 10L-4.3 9L-7.8 6.2L-9.7 2.2L-9.7 -2.2L-7.8 -6.2L-4.3 -9Z" fill="#297EA6"></path></g><g transform="translate(452 277)"><path d="M0 -8L3.5 -7.2L6.3 -5L7.8 -1.8L7.8 1.8L6.3 5L3.5 7.2L0 8L-3.5 7.2L-6.3 5L-7.8 1.8L-7.8 -1.8L-6.3 -5L-3.5 -7.2Z" fill="#297EA6"></path></g><g transform="translate(555 149)"><path d="M0 -6L2.6 -5.4L4.7 -3.7L5.8 -1.3L5.8 1.3L4.7 3.7L2.6 5.4L0 6L-2.6 5.4L-4.7 3.7L-5.8 1.3L-5.8 -1.3L-4.7 -3.7L-2.6 -5.4Z" fill="#297EA6"></path></g><g transform="translate(617 83)"><path d="M0 -11L4.8 -9.9L8.6 -6.9L10.7 -2.4L10.7 2.4L8.6 6.9L4.8 9.9L0 11L-4.8 9.9L-8.6 6.9L-10.7 2.4L-10.7 -2.4L-8.6 -6.9L-4.8 -9.9Z" fill="#297EA6"></path></g><g transform="translate(401 408)"><path d="M0 -10L4.3 -9L7.8 -6.2L9.7 -2.2L9.7 2.2L7.8 6.2L4.3 9L0 10L-4.3 9L-7.8 6.2L-9.7 2.2L-9.7 -2.2L-7.8 -6.2L-4.3 -9Z" fill="#297EA6"></path></g><g transform="translate(798 141)"><path d="M0 -12L5.2 -10.8L9.4 -7.5L11.7 -2.7L11.7 2.7L9.4 7.5L5.2 10.8L0 12L-5.2 10.8L-9.4 7.5L-11.7 2.7L-11.7 -2.7L-9.4 -7.5L-5.2 -10.8Z" fill="#297EA6"></path></g><g transform="translate(762 47)"><path d="M0 -12L5.2 -10.8L9.4 -7.5L11.7 -2.7L11.7 2.7L9.4 7.5L5.2 10.8L0 12L-5.2 10.8L-9.4 7.5L-11.7 2.7L-11.7 -2.7L-9.4 -7.5L-5.2 -10.8Z" fill="#297EA6"></path></g><g transform="translate(177 498)"><path d="M0 -12L5.2 -10.8L9.4 -7.5L11.7 -2.7L11.7 2.7L9.4 7.5L5.2 10.8L0 12L-5.2 10.8L-9.4 7.5L-11.7 2.7L-11.7 -2.7L-9.4 -7.5L-5.2 -10.8Z" fill="#297EA6"></path></g><g transform="translate(599 527)"><path d="M0 -9L3.9 -8.1L7 -5.6L8.8 -2L8.8 2L7 5.6L3.9 8.1L0 9L-3.9 8.1L-7 5.6L-8.8 2L-8.8 -2L-7 -5.6L-3.9 -8.1Z" fill="#297EA6"></path></g><g transform="translate(301 407)"><path d="M0 -12L5.2 -10.8L9.4 -7.5L11.7 -2.7L11.7 2.7L9.4 7.5L5.2 10.8L0 12L-5.2 10.8L-9.4 7.5L-11.7 2.7L-11.7 -2.7L-9.4 -7.5L-5.2 -10.8Z" fill="#297EA6"></path></g><g transform="translate(865 347)"><path d="M0 -9L3.9 -8.1L7 -5.6L8.8 -2L8.8 2L7 5.6L3.9 8.1L0 9L-3.9 8.1L-7 5.6L-8.8 2L-8.8 -2L-7 -5.6L-3.9 -8.1Z" fill="#297EA6"></path></g><g transform="translate(136 143)"><path d="M0 -10L4.3 -9L7.8 -6.2L9.7 -2.2L9.7 2.2L7.8 6.2L4.3 9L0 10L-4.3 9L-7.8 6.2L-9.7 2.2L-9.7 -2.2L-7.8 -6.2L-4.3 -9Z" fill="#297EA6"></path></g><g transform="translate(568 117)"><path d="M0 -10L4.3 -9L7.8 -6.2L9.7 -2.2L9.7 2.2L7.8 6.2L4.3 9L0 10L-4.3 9L-7.8 6.2L-9.7 2.2L-9.7 -2.2L-7.8 -6.2L-4.3 -9Z" fill="#297EA6"></path></g><g transform="translate(497 381)"><path d="M0 -11L4.8 -9.9L8.6 -6.9L10.7 -2.4L10.7 2.4L8.6 6.9L4.8 9.9L0 11L-4.8 9.9L-8.6 6.9L-10.7 2.4L-10.7 -2.4L-8.6 -6.9L-4.8 -9.9Z" fill="#297EA6"></path></g><g transform="translate(75 490)"><path d="M0 -9L3.9 -8.1L7 -5.6L8.8 -2L8.8 2L7 5.6L3.9 8.1L0 9L-3.9 8.1L-7 5.6L-8.8 2L-8.8 -2L-7 -5.6L-3.9 -8.1Z" fill="#297EA6"></path></g><g transform="translate(762 310)"><path d="M0 -11L4.8 -9.9L8.6 -6.9L10.7 -2.4L10.7 2.4L8.6 6.9L4.8 9.9L0 11L-4.8 9.9L-8.6 6.9L-10.7 2.4L-10.7 -2.4L-8.6 -6.9L-4.8 -9.9Z" fill="#297EA6"></path></g><g transform="translate(18 11)"><path d="M0 -9L3.9 -8.1L7 -5.6L8.8 -2L8.8 2L7 5.6L3.9 8.1L0 9L-3.9 8.1L-7 5.6L-8.8 2L-8.8 -2L-7 -5.6L-3.9 -8.1Z" fill="#297EA6"></path></g><g transform="translate(561 457)"><path d="M0 -11L4.8 -9.9L8.6 -6.9L10.7 -2.4L10.7 2.4L8.6 6.9L4.8 9.9L0 11L-4.8 9.9L-8.6 6.9L-10.7 2.4L-10.7 -2.4L-8.6 -6.9L-4.8 -9.9Z" fill="#297EA6"></path></g><g transform="translate(607 217)"><path d="M0 -6L2.6 -5.4L4.7 -3.7L5.8 -1.3L5.8 1.3L4.7 3.7L2.6 5.4L0 6L-2.6 5.4L-4.7 3.7L-5.8 1.3L-5.8 -1.3L-4.7 -3.7L-2.6 -5.4Z" fill="#297EA6"></path></g><g transform="translate(867 391)"><path d="M0 -10L4.3 -9L7.8 -6.2L9.7 -2.2L9.7 2.2L7.8 6.2L4.3 9L0 10L-4.3 9L-7.8 6.2L-9.7 2.2L-9.7 -2.2L-7.8 -6.2L-4.3 -9Z" fill="#297EA6"></path></g><g transform="translate(93 139)"><path d="M0 -10L4.3 -9L7.8 -6.2L9.7 -2.2L9.7 2.2L7.8 6.2L4.3 9L0 10L-4.3 9L-7.8 6.2L-9.7 2.2L-9.7 -2.2L-7.8 -6.2L-4.3 -9Z" fill="#297EA6"></path></g><g transform="translate(718 109)"><path d="M0 -12L5.2 -10.8L9.4 -7.5L11.7 -2.7L11.7 2.7L9.4 7.5L5.2 10.8L0 12L-5.2 10.8L-9.4 7.5L-11.7 2.7L-11.7 -2.7L-9.4 -7.5L-5.2 -10.8Z" fill="#297EA6"></path></g><g transform="translate(246 476)"><path d="M0 -12L5.2 -10.8L9.4 -7.5L11.7 -2.7L11.7 2.7L9.4 7.5L5.2 10.8L0 12L-5.2 10.8L-9.4 7.5L-11.7 2.7L-11.7 -2.7L-9.4 -7.5L-5.2 -10.8Z" fill="#297EA6"></path></g><g transform="translate(42 198)"><path d="M0 -10L4.3 -9L7.8 -6.2L9.7 -2.2L9.7 2.2L7.8 6.2L4.3 9L0 10L-4.3 9L-7.8 6.2L-9.7 2.2L-9.7 -2.2L-7.8 -6.2L-4.3 -9Z" fill="#297EA6"></path></g><g transform="translate(107 459)"><path d="M0 -11L4.8 -9.9L8.6 -6.9L10.7 -2.4L10.7 2.4L8.6 6.9L4.8 9.9L0 11L-4.8 9.9L-8.6 6.9L-10.7 2.4L-10.7 -2.4L-8.6 -6.9L-4.8 -9.9Z" fill="#297EA6"></path></g><g transform="translate(501 451)"><path d="M0 -8L3.5 -7.2L6.3 -5L7.8 -1.8L7.8 1.8L6.3 5L3.5 7.2L0 8L-3.5 7.2L-6.3 5L-7.8 1.8L-7.8 -1.8L-6.3 -5L-3.5 -7.2Z" fill="#297EA6"></path></g><g transform="translate(324 60)"><path d="M0 -9L3.9 -8.1L7 -5.6L8.8 -2L8.8 2L7 5.6L3.9 8.1L0 9L-3.9 8.1L-7 5.6L-8.8 2L-8.8 -2L-7 -5.6L-3.9 -8.1Z" fill="#297EA6"></path></g><g transform="translate(152 47)"><path d="M0 -12L5.2 -10.8L9.4 -7.5L11.7 -2.7L11.7 2.7L9.4 7.5L5.2 10.8L0 12L-5.2 10.8L-9.4 7.5L-11.7 2.7L-11.7 -2.7L-9.4 -7.5L-5.2 -10.8Z" fill="#297EA6"></path></g><g transform="translate(753 541)"><path d="M0 -10L4.3 -9L7.8 -6.2L9.7 -2.2L9.7 2.2L7.8 6.2L4.3 9L0 10L-4.3 9L-7.8 6.2L-9.7 2.2L-9.7 -2.2L-7.8 -6.2L-4.3 -9Z" fill="#297EA6"></path></g><g transform="translate(872 209)"><path d="M0 -12L5.2 -10.8L9.4 -7.5L11.7 -2.7L11.7 2.7L9.4 7.5L5.2 10.8L0 12L-5.2 10.8L-9.4 7.5L-11.7 2.7L-11.7 -2.7L-9.4 -7.5L-5.2 -10.8Z" fill="#297EA6"></path></g><g transform="translate(432 522)"><path d="M0 -12L5.2 -10.8L9.4 -7.5L11.7 -2.7L11.7 2.7L9.4 7.5L5.2 10.8L0 12L-5.2 10.8L-9.4 7.5L-11.7 2.7L-11.7 -2.7L-9.4 -7.5L-5.2 -10.8Z" fill="#297EA6"></path></g><g transform="translate(193 119)"><path d="M0 -9L3.9 -8.1L7 -5.6L8.8 -2L8.8 2L7 5.6L3.9 8.1L0 9L-3.9 8.1L-7 5.6L-8.8 2L-8.8 -2L-7 -5.6L-3.9 -8.1Z" fill="#297EA6"></path></g><g transform="translate(364 48)"><path d="M0 -8L3.5 -7.2L6.3 -5L7.8 -1.8L7.8 1.8L6.3 5L3.5 7.2L0 8L-3.5 7.2L-6.3 5L-7.8 1.8L-7.8 -1.8L-6.3 -5L-3.5 -7.2Z" fill="#297EA6"></path></g><g transform="translate(895 27)"><path d="M0 -7L3 -6.3L5.5 -4.4L6.8 -1.6L6.8 1.6L5.5 4.4L3 6.3L0 7L-3 6.3L-5.5 4.4L-6.8 1.6L-6.8 -1.6L-5.5 -4.4L-3 -6.3Z" fill="#297EA6"></path></g><g transform="translate(336 330)"><path d="M0 -12L5.2 -10.8L9.4 -7.5L11.7 -2.7L11.7 2.7L9.4 7.5L5.2 10.8L0 12L-5.2 10.8L-9.4 7.5L-11.7 2.7L-11.7 -2.7L-9.4 -7.5L-5.2 -10.8Z" fill="#297EA6"></path></g><g transform="translate(783 227)"><path d="M0 -7L3 -6.3L5.5 -4.4L6.8 -1.6L6.8 1.6L5.5 4.4L3 6.3L0 7L-3 6.3L-5.5 4.4L-6.8 1.6L-6.8 -1.6L-5.5 -4.4L-3 -6.3Z" fill="#297EA6"></path></g><g transform="translate(91 75)"><path d="M0 -9L3.9 -8.1L7 -5.6L8.8 -2L8.8 2L7 5.6L3.9 8.1L0 9L-3.9 8.1L-7 5.6L-8.8 2L-8.8 -2L-7 -5.6L-3.9 -8.1Z" fill="#297EA6"></path></g><g transform="translate(830 215)"><path d="M0 -8L3.5 -7.2L6.3 -5L7.8 -1.8L7.8 1.8L6.3 5L3.5 7.2L0 8L-3.5 7.2L-6.3 5L-7.8 1.8L-7.8 -1.8L-6.3 -5L-3.5 -7.2Z" fill="#297EA6"></path></g><g transform="translate(539 182)"><path d="M0 -10L4.3 -9L7.8 -6.2L9.7 -2.2L9.7 2.2L7.8 6.2L4.3 9L0 10L-4.3 9L-7.8 6.2L-9.7 2.2L-9.7 -2.2L-7.8 -6.2L-4.3 -9Z" fill="#297EA6"></path></g><g transform="translate(156 243)"><path d="M0 -7L3 -6.3L5.5 -4.4L6.8 -1.6L6.8 1.6L5.5 4.4L3 6.3L0 7L-3 6.3L-5.5 4.4L-6.8 1.6L-6.8 -1.6L-5.5 -4.4L-3 -6.3Z" fill="#297EA6"></path></g><g transform="translate(739 233)"><path d="M0 -6L2.6 -5.4L4.7 -3.7L5.8 -1.3L5.8 1.3L4.7 3.7L2.6 5.4L0 6L-2.6 5.4L-4.7 3.7L-5.8 1.3L-5.8 -1.3L-4.7 -3.7L-2.6 -5.4Z" fill="#297EA6"></path></g><g transform="translate(757 365)"><path d="M0 -8L3.5 -7.2L6.3 -5L7.8 -1.8L7.8 1.8L6.3 5L3.5 7.2L0 8L-3.5 7.2L-6.3 5L-7.8 1.8L-7.8 -1.8L-6.3 -5L-3.5 -7.2Z" fill="#297EA6"></path></g><g transform="translate(680 400)"><path d="M0 -11L4.8 -9.9L8.6 -6.9L10.7 -2.4L10.7 2.4L8.6 6.9L4.8 9.9L0 11L-4.8 9.9L-8.6 6.9L-10.7 2.4L-10.7 -2.4L-8.6 -6.9L-4.8 -9.9Z" fill="#297EA6"></path></g><g transform="translate(688 374)"><path d="M0 -7L3 -6.3L5.5 -4.4L6.8 -1.6L6.8 1.6L5.5 4.4L3 6.3L0 7L-3 6.3L-5.5 4.4L-6.8 1.6L-6.8 -1.6L-5.5 -4.4L-3 -6.3Z" fill="#297EA6"></path></g><g transform="translate(322 479)"><path d="M0 -9L3.9 -8.1L7 -5.6L8.8 -2L8.8 2L7 5.6L3.9 8.1L0 9L-3.9 8.1L-7 5.6L-8.8 2L-8.8 -2L-7 -5.6L-3.9 -8.1Z" fill="#297EA6"></path></g><g transform="translate(720 378)"><path d="M0 -11L4.8 -9.9L8.6 -6.9L10.7 -2.4L10.7 2.4L8.6 6.9L4.8 9.9L0 11L-4.8 9.9L-8.6 6.9L-10.7 2.4L-10.7 -2.4L-8.6 -6.9L-4.8 -9.9Z" fill="#297EA6"></path></g><g transform="translate(395 220)"><path d="M0 -8L3.5 -7.2L6.3 -5L7.8 -1.8L7.8 1.8L6.3 5L3.5 7.2L0 8L-3.5 7.2L-6.3 5L-7.8 1.8L-7.8 -1.8L-6.3 -5L-3.5 -7.2Z" fill="#297EA6"></path></g><g transform="translate(519 97)"><path d="M0 -11L4.8 -9.9L8.6 -6.9L10.7 -2.4L10.7 2.4L8.6 6.9L4.8 9.9L0 11L-4.8 9.9L-8.6 6.9L-10.7 2.4L-10.7 -2.4L-8.6 -6.9L-4.8 -9.9Z" fill="#297EA6"></path></g><g transform="translate(163 118)"><path d="M0 -7L3 -6.3L5.5 -4.4L6.8 -1.6L6.8 1.6L5.5 4.4L3 6.3L0 7L-3 6.3L-5.5 4.4L-6.8 1.6L-6.8 -1.6L-5.5 -4.4L-3 -6.3Z" fill="#297EA6"></path></g><g transform="translate(186 29)"><path d="M0 -11L4.8 -9.9L8.6 -6.9L10.7 -2.4L10.7 2.4L8.6 6.9L4.8 9.9L0 11L-4.8 9.9L-8.6 6.9L-10.7 2.4L-10.7 -2.4L-8.6 -6.9L-4.8 -9.9Z" fill="#297EA6"></path></g><g transform="translate(554 74)"><path d="M0 -9L3.9 -8.1L7 -5.6L8.8 -2L8.8 2L7 5.6L3.9 8.1L0 9L-3.9 8.1L-7 5.6L-8.8 2L-8.8 -2L-7 -5.6L-3.9 -8.1Z" fill="#297EA6"></path></g><g transform="translate(297 265)"><path d="M0 -7L3 -6.3L5.5 -4.4L6.8 -1.6L6.8 1.6L5.5 4.4L3 6.3L0 7L-3 6.3L-5.5 4.4L-6.8 1.6L-6.8 -1.6L-5.5 -4.4L-3 -6.3Z" fill="#297EA6"></path></g><g transform="translate(835 154)"><path d="M0 -7L3 -6.3L5.5 -4.4L6.8 -1.6L6.8 1.6L5.5 4.4L3 6.3L0 7L-3 6.3L-5.5 4.4L-6.8 1.6L-6.8 -1.6L-5.5 -4.4L-3 -6.3Z" fill="#297EA6"></path></g><g transform="translate(615 417)"><path d="M0 -12L5.2 -10.8L9.4 -7.5L11.7 -2.7L11.7 2.7L9.4 7.5L5.2 10.8L0 12L-5.2 10.8L-9.4 7.5L-11.7 2.7L-11.7 -2.7L-9.4 -7.5L-5.2 -10.8Z" fill="#297EA6"></path></g><g transform="translate(746 447)"><path d="M0 -9L3.9 -8.1L7 -5.6L8.8 -2L8.8 2L7 5.6L3.9 8.1L0 9L-3.9 8.1L-7 5.6L-8.8 2L-8.8 -2L-7 -5.6L-3.9 -8.1Z" fill="#297EA6"></path></g><g transform="translate(225 595)"><path d="M0 -7L3 -6.3L5.5 -4.4L6.8 -1.6L6.8 1.6L5.5 4.4L3 6.3L0 7L-3 6.3L-5.5 4.4L-6.8 1.6L-6.8 -1.6L-5.5 -4.4L-3 -6.3Z" fill="#297EA6"></path></g><g transform="translate(746 412)"><path d="M0 -8L3.5 -7.2L6.3 -5L7.8 -1.8L7.8 1.8L6.3 5L3.5 7.2L0 8L-3.5 7.2L-6.3 5L-7.8 1.8L-7.8 -1.8L-6.3 -5L-3.5 -7.2Z" fill="#297EA6"></path></g><g transform="translate(17 126)"><path d="M0 -10L4.3 -9L7.8 -6.2L9.7 -2.2L9.7 2.2L7.8 6.2L4.3 9L0 10L-4.3 9L-7.8 6.2L-9.7 2.2L-9.7 -2.2L-7.8 -6.2L-4.3 -9Z" fill="#297EA6"></path></g><g transform="translate(597 274)"><path d="M0 -11L4.8 -9.9L8.6 -6.9L10.7 -2.4L10.7 2.4L8.6 6.9L4.8 9.9L0 11L-4.8 9.9L-8.6 6.9L-10.7 2.4L-10.7 -2.4L-8.6 -6.9L-4.8 -9.9Z" fill="#297EA6"></path></g><g transform="translate(361 538)"><path d="M0 -8L3.5 -7.2L6.3 -5L7.8 -1.8L7.8 1.8L6.3 5L3.5 7.2L0 8L-3.5 7.2L-6.3 5L-7.8 1.8L-7.8 -1.8L-6.3 -5L-3.5 -7.2Z" fill="#297EA6"></path></g><g transform="translate(639 305)"><path d="M0 -9L3.9 -8.1L7 -5.6L8.8 -2L8.8 2L7 5.6L3.9 8.1L0 9L-3.9 8.1L-7 5.6L-8.8 2L-8.8 -2L-7 -5.6L-3.9 -8.1Z" fill="#297EA6"></path></g><g transform="translate(266 281)"><path d="M0 -11L4.8 -9.9L8.6 -6.9L10.7 -2.4L10.7 2.4L8.6 6.9L4.8 9.9L0 11L-4.8 9.9L-8.6 6.9L-10.7 2.4L-10.7 -2.4L-8.6 -6.9L-4.8 -9.9Z" fill="#297EA6"></path></g></g></svg>